<svg width="35" height="34" viewBox="0 0 35 34" fill="none" xmlns="http://www.w3.org/2000/svg">
<path d="M6.04182 28.3433C5.39016 28.3433 4.84616 28.1252 4.40982 27.6888C3.97255 27.2516 3.75391 26.7071 3.75391 26.0554V10.7979C3.75391 10.1463 3.97255 9.60226 4.40982 9.16593C4.84616 8.72865 5.39016 8.51001 6.04182 8.51001H10.2323L12.1661 6.40626C12.3757 6.18148 12.6274 6.00393 12.9212 5.87359C13.2158 5.74231 13.5247 5.67668 13.8477 5.67668H19.5002C19.7013 5.67668 19.8699 5.74468 20.0059 5.88068C20.141 6.01668 20.2085 6.18526 20.2085 6.38643C20.2085 6.58665 20.141 6.75476 20.0059 6.89076C19.8699 7.02581 19.7013 7.09334 19.5002 7.09334H13.4652L10.8557 9.92668H6.04182C5.78777 9.92668 5.57905 10.0084 5.41566 10.1718C5.25227 10.3351 5.17057 10.5439 5.17057 10.7979V26.0554C5.17057 26.3095 5.25227 26.5182 5.41566 26.6816C5.57905 26.845 5.78777 26.9267 6.04182 26.9267H26.966C27.22 26.9267 27.4288 26.845 27.5922 26.6816C27.7555 26.5182 27.8372 26.3095 27.8372 26.0554V15.4304C27.8372 15.2293 27.9052 15.0607 28.0412 14.9247C28.1772 14.7887 28.3458 14.7211 28.547 14.7221C28.7472 14.7221 28.9153 14.7896 29.0513 14.9247C29.1864 15.0607 29.2539 15.2293 29.2539 15.4304V26.0554C29.2539 26.7071 29.0357 27.2511 28.5994 27.6874C28.1621 28.1247 27.6177 28.3433 26.966 28.3433H6.04182ZM27.8372 7.09334H25.7122C25.5111 7.09334 25.343 7.02534 25.2079 6.88934C25.0728 6.75334 25.0049 6.58476 25.0039 6.38359C25.0039 6.18337 25.0719 6.01526 25.2079 5.87926C25.3439 5.7442 25.512 5.67668 25.7122 5.67668H27.8372V3.55168C27.8372 3.35051 27.9052 3.1824 28.0412 3.04734C28.1772 2.91229 28.3454 2.84429 28.5456 2.84334C28.7458 2.84334 28.9139 2.91134 29.0499 3.04734C29.185 3.1824 29.2525 3.35051 29.2525 3.55168V5.67668H31.3775C31.5787 5.67668 31.7468 5.74468 31.8818 5.88068C32.0178 6.01668 32.0858 6.18526 32.0858 6.38643C32.0858 6.58665 32.0178 6.75476 31.8818 6.89076C31.7477 7.02581 31.5801 7.09334 31.3789 7.09334H29.2539V9.21834C29.2539 9.41951 29.1859 9.58762 29.0499 9.72268C28.9139 9.85868 28.7458 9.92668 28.5456 9.92668C28.3454 9.92668 28.1772 9.85868 28.0412 9.72268C27.9052 9.58762 27.8372 9.41951 27.8372 9.21834V7.09334ZM16.5039 23.7108C17.9839 23.7108 19.2352 23.2008 20.2581 22.1808C21.2781 21.158 21.7881 19.9066 21.7881 18.4267C21.7881 16.9467 21.2781 15.6953 20.2581 14.6725C19.2343 13.6525 17.9829 13.1425 16.5039 13.1425C15.0249 13.1425 13.7735 13.6525 12.7497 14.6725C11.7297 15.6953 11.2197 16.9467 11.2197 18.4267C11.2197 19.9066 11.7302 21.158 12.7512 22.1808C13.773 23.2008 15.024 23.7108 16.5039 23.7108ZM16.5039 22.2942C15.4036 22.2942 14.4837 21.9249 13.7442 21.1863C13.0047 20.4478 12.635 19.5279 12.635 18.4267C12.635 17.3264 13.0047 16.4065 13.7442 15.667C14.4837 14.9275 15.4036 14.5578 16.5039 14.5578C17.6042 14.5578 18.5241 14.9275 19.2636 15.667C20.0031 16.4065 20.3728 17.3264 20.3728 18.4267C20.3728 19.527 20.0031 20.4468 19.2636 21.1863C18.5241 21.9258 17.6042 22.2956 16.5039 22.2956" fill="#9A9A9A"/>
</svg>
