<svg width="151" height="151" viewBox="0 0 151 151" fill="none" xmlns="http://www.w3.org/2000/svg">
<path d="M61.8805 108.535C60.9805 108.535 60.2305 109.285 60.2305 110.185C60.2305 111.085 60.9805 111.835 61.8805 111.835H89.0305C89.9305 111.835 90.6805 111.085 90.6805 110.185C90.6805 109.285 90.0805 108.535 89.1805 108.535H61.8805Z" fill="#FF3F40"/>
<path d="M103.73 116.935H47.3297C46.4297 116.935 45.6797 117.685 45.6797 118.585C45.6797 119.485 46.4297 120.235 47.3297 120.235H103.73C104.63 120.235 105.38 119.485 105.38 118.585C105.38 117.685 104.63 116.935 103.73 116.935Z" fill="#FF3F40"/>
<path d="M44.6305 53.1851C44.4805 53.7851 44.6305 54.5351 45.0805 54.9851L59.0305 68.6352L55.7305 87.8351C55.5805 88.4351 55.8805 89.1851 56.4805 89.4851C56.7805 89.6351 57.0805 89.7852 57.5305 89.7852C57.8305 89.7852 58.1305 89.7852 58.2805 89.6352L75.5305 80.6352L92.7805 89.6352C93.3805 89.9352 94.1305 89.9351 94.5805 89.4851C95.1805 89.0351 95.3305 88.4351 95.3305 87.8351L92.0305 68.6352L105.98 54.9851C106.43 54.5351 106.58 53.7851 106.43 53.1851C106.28 52.5851 105.68 52.1351 105.08 51.9851L85.8805 49.1352L77.0305 31.5852C76.7305 30.9852 76.1305 30.6852 75.5305 30.6852C74.9305 30.6852 74.3305 30.9852 74.0305 31.5852L65.3305 49.1352L46.1305 51.9851C45.3805 52.1351 44.9305 52.5851 44.6305 53.1851ZM66.6805 52.4351C67.2805 52.2851 67.7305 51.9851 68.0305 51.5351L75.5305 36.2351L83.0305 51.5351C83.3305 51.9851 83.7805 52.4351 84.3805 52.4351L101.03 54.8352L88.8805 66.6851C88.4305 67.1351 88.2805 67.5851 88.4305 68.1851L91.2805 84.8351L76.2805 77.0351C75.8305 76.7351 75.2305 76.7351 74.6305 77.0351L59.6305 84.8351L62.4805 68.1851C62.6305 67.5851 62.3305 67.1351 62.0305 66.6851L50.0305 54.8352L66.6805 52.4351Z" fill="#FF3F40"/>
<path d="M122.478 49.8852C122.328 49.2852 121.728 48.8351 121.128 48.6851L104.928 46.2851L97.578 31.5852C97.278 30.9852 96.678 30.6852 96.078 30.6852C95.478 30.6852 94.878 30.9852 94.578 31.5852L87.828 45.2351C87.378 46.1351 87.828 47.1851 88.578 47.4851C89.478 47.9351 90.528 47.4851 90.828 46.7351L95.928 36.2351L102.078 48.6851C102.378 49.1351 102.828 49.5852 103.428 49.5852L117.078 51.6851L107.178 61.2851C106.728 61.7351 106.578 62.1852 106.728 62.7851L109.128 76.2851L98.328 70.5852L96.978 69.8352C96.078 69.3852 95.028 69.6852 94.728 70.5852C94.278 71.4851 94.578 72.5352 95.478 72.8352L110.778 80.7852C111.078 80.9352 111.228 80.9352 111.528 80.9352C111.828 80.9352 112.278 80.7852 112.578 80.6352C113.178 80.1852 113.328 79.5851 113.328 78.9851L110.628 63.0852L122.328 51.6851C122.628 51.2351 122.778 50.4852 122.478 49.8852Z" fill="#FF3F40"/>
<path d="M55.7297 72.9851C56.6297 72.5351 56.9297 71.4851 56.4797 70.7351C56.0297 69.8351 54.9797 69.5351 54.2297 69.9851L41.9297 76.2851L44.3297 62.7851C44.4797 62.1852 44.1797 61.5851 43.8797 61.2851L33.9797 51.6851L47.6297 49.5852C48.2297 49.4352 48.6797 49.1351 48.9797 48.6851L55.1297 36.3851L60.0797 46.7351C60.5297 47.6351 61.5797 47.9351 62.3297 47.4851C63.2297 47.0351 63.5297 45.9851 63.0797 45.2351L56.4797 31.5852C56.1797 30.9852 55.5797 30.6852 54.9797 30.6852C54.2297 30.6852 53.7797 30.9852 53.4797 31.5852L46.1297 46.2851L29.9297 48.6851C29.3297 48.8351 28.7297 49.2852 28.5797 49.8852C28.4297 50.4852 28.5797 51.2351 29.0297 51.6851L40.7297 63.0852L38.0297 78.9851C37.8797 79.5851 38.1797 80.3352 38.7797 80.6352C39.0797 80.7852 39.3797 80.9352 39.8297 80.9352C40.1297 80.9352 40.4297 80.9352 40.5797 80.7852L54.5297 73.5852L55.7297 72.9851Z" fill="#FF3F40"/>
</svg>
