<svg width="86" height="33" viewBox="0 0 86 33" fill="none" xmlns="http://www.w3.org/2000/svg">
<g clip-path="url(#clip0_163_3526)">
<path d="M0.988281 15.9054C1.0689 15.3097 1.13985 14.714 1.23659 14.1215C1.76347 10.8622 3.29036 7.8465 5.60661 5.49046C7.92285 3.13442 10.9143 1.55419 14.1682 0.967808C19.3698 0.0211264 23.9781 1.32845 27.9317 4.80605C30.7829 7.27471 32.6204 10.708 33.0914 14.4467C33.7687 19.3798 32.4175 23.7558 29.083 27.4749C26.5031 30.3375 23.2783 31.9829 19.4698 32.6011C18.9796 32.6816 18.483 32.7267 17.9863 32.7911H16.2998C16.1786 32.7527 16.0546 32.7236 15.9289 32.7042C14.0277 32.5951 12.1658 32.1183 10.4467 31.3003C5.34825 28.8498 2.25886 24.8602 1.23659 19.3057C1.13017 18.7165 1.0689 18.1176 0.988281 17.5251V15.9054ZM10.9079 10.177C10.7803 10.1856 10.6533 10.2006 10.5273 10.2221C9.38251 10.5119 8.23769 10.8146 7.08966 11.0883C6.76717 11.1623 6.68978 11.3105 6.68978 11.6196C6.68978 13.5999 6.68978 15.577 6.7059 17.5541C6.7128 18.1321 6.76999 18.7085 6.87682 19.2768C7.28502 21.5346 8.43129 23.5937 10.1363 25.1319C11.8413 26.67 14.0088 27.6004 16.2998 27.7776C17.7724 27.9162 19.2576 27.7305 20.6505 27.2337C22.0435 26.7368 23.3104 25.9409 24.3618 24.9021C26.2058 23.2308 27.3293 20.9109 27.4964 18.4299C27.6383 16.1405 27.5609 13.8349 27.5931 11.5359C27.6004 11.4866 27.5978 11.4363 27.5855 11.388C27.5732 11.3397 27.5514 11.2943 27.5214 11.2545C27.4914 11.2147 27.4538 11.1812 27.4108 11.156C27.3677 11.1307 27.3201 11.1143 27.2706 11.1076C26.4257 10.8854 25.584 10.6407 24.7359 10.425C24.3102 10.3187 23.8717 10.2575 23.3847 10.1641V10.7309C23.3847 13.0557 23.3847 15.3805 23.3847 17.7054C23.3992 18.9784 23.1929 20.2443 22.7752 21.447C22.1303 23.2052 21.0112 24.4706 19.157 24.989C18.2266 25.2516 17.2536 25.3293 16.2933 25.2177C14.3874 25.0148 12.9201 24.1712 11.972 22.4549C11.2486 21.0568 10.8851 19.501 10.9143 17.9276C10.8853 15.5126 10.9143 13.0976 10.9143 10.6826L10.9079 10.177ZM15.271 10.499C15.271 11.8096 15.271 13.1201 15.271 14.4306C15.271 14.7269 15.3452 14.8396 15.658 14.8364C16.6513 14.817 17.6413 14.8364 18.6345 14.8364C18.928 14.8364 19.0376 14.7623 19.0376 14.4467C19.0247 11.8149 19.0247 9.18204 19.0376 6.54808C19.0376 6.26472 18.957 6.15846 18.6668 6.16167C17.6649 6.16167 16.662 6.16167 15.658 6.16167C15.3355 6.16167 15.2678 6.28082 15.271 6.57384C15.2807 7.8876 15.271 9.19814 15.271 10.5087V10.499Z" fill="#8401FF"/>
<path d="M72.0729 14.189C72.0729 12.9364 72.0729 11.7418 72.0729 10.5503C72.0469 9.93558 72.0696 9.31972 72.1406 8.70851C72.2562 7.91464 72.6509 7.18774 73.2542 6.65794C73.8575 6.12814 74.6299 5.83002 75.4332 5.81694C75.9784 5.75609 76.5303 5.80602 77.0557 5.96373C77.5811 6.12144 78.0691 6.38368 78.4903 6.73464C78.6806 6.90208 78.8418 7.10173 79.0289 7.30137C79.219 7.07372 79.4237 6.85861 79.6416 6.65736C80.6381 5.8427 81.799 5.69136 83.0277 5.8749C84.6207 6.12606 85.6075 7.04054 85.9074 8.57005C85.9576 8.84837 85.9803 9.13094 85.9752 9.41369C85.9752 10.8498 85.9752 12.2892 85.9752 13.7285C85.9752 14.0827 85.8687 14.1922 85.514 14.1761C84.911 14.1471 84.3079 14.1761 83.6565 14.1761V13.7253C83.6565 12.4019 83.6565 11.0784 83.6565 9.75823C83.6565 8.85341 83.2437 8.23517 82.5375 8.00655C81.3379 7.61371 80.2801 8.28991 80.2188 9.54249C80.1608 10.9271 80.1672 12.3149 80.1769 13.6995C80.1769 14.0924 80.0673 14.2083 79.6771 14.1857C79.0902 14.1503 78.4968 14.1857 77.8615 14.1857V13.7349C77.8615 12.3858 77.8615 11.0366 77.8615 9.68739C77.8615 8.23839 76.4716 7.55253 75.2333 8.11603C74.9839 8.23014 74.7737 8.41489 74.6286 8.64731C74.4836 8.87973 74.4101 9.14959 74.4174 9.42335C74.3755 10.8337 74.3787 12.2473 74.3658 13.6577C74.3658 14.1857 74.3658 14.1857 73.8466 14.1857L72.0729 14.189Z" fill="#8401FF"/>
<path d="M44.2663 20.0622C45.7562 18.932 47.3106 18.845 48.9198 19.386C50.458 19.9044 51.2964 21.0507 51.5319 22.606C51.9543 25.4042 50.1355 27.1977 47.7717 27.5229C46.7251 27.688 45.6542 27.603 44.6469 27.275C43.9044 27.0543 43.2504 26.6059 42.7775 25.9932C42.3046 25.3806 42.0368 24.6349 42.0122 23.8618C41.8961 22.4064 41.9412 20.938 41.9219 19.4729C41.9219 18.6389 41.9219 17.805 41.9219 16.971C41.9219 16.7327 42.0025 16.649 42.2444 16.649C42.8119 16.649 43.3795 16.649 43.9471 16.649C44.2244 16.649 44.2921 16.752 44.2889 17.0128C44.2889 17.8597 44.2889 18.7098 44.2889 19.5567L44.2663 20.0622ZM46.7559 25.5748C48.4199 25.5748 49.526 24.2868 49.1423 22.7895C49.0504 22.3851 48.8431 22.016 48.5455 21.7268C48.2479 21.4377 47.8727 21.2408 47.4654 21.1602C47.0191 21.0198 46.5419 21.0107 46.0906 21.1341C45.6394 21.2574 45.2333 21.508 44.921 21.8557C44.6194 22.1695 44.4219 22.5685 44.3556 22.9983C44.2892 23.4281 44.3571 23.868 44.5501 24.2579C44.9629 25.1981 45.7626 25.562 46.7559 25.5748Z" fill="#8401FF"/>
<path d="M59.9196 20.4776V19.2733H62.1996C62.1996 19.4279 62.2157 19.5953 62.2157 19.7273C62.2157 21.3373 62.2157 22.9151 62.2157 24.5058C62.2157 25.0983 62.3544 25.5587 63.0703 25.5008C63.1348 25.5008 63.2735 25.6489 63.2767 25.7326C63.296 26.2188 63.296 26.6986 63.2767 27.1945C63.2767 27.2814 63.1445 27.4296 63.0735 27.4296C62.5353 27.4464 61.9965 27.4259 61.4611 27.3684C61.1441 27.3235 60.8437 27.1985 60.5887 27.0052C60.3336 26.8119 60.1321 26.5567 60.0035 26.2639C59.9712 26.1995 59.9293 26.1351 59.9325 26.1383C59.4391 26.5119 59.0006 26.9755 58.4652 27.2267C57.9045 27.4927 57.2893 27.6244 56.6687 27.6113C56.048 27.5981 55.439 27.4405 54.89 27.151C54.3411 26.8615 53.8674 26.448 53.5067 25.9435C53.146 25.439 52.9081 24.8574 52.8121 24.245C52.6587 23.5192 52.6871 22.7668 52.8947 22.0546C53.1022 21.3424 53.4826 20.6923 54.0021 20.162C55.3533 18.7517 58.4233 18.6068 59.6875 20.2747C59.7612 20.3464 59.8387 20.4141 59.9196 20.4776ZM57.1366 21.1055C56.7946 21.1102 56.4586 21.1965 56.1568 21.3573C55.855 21.5181 55.5961 21.7486 55.4017 22.0296C55.1573 22.3572 55.0101 22.7468 54.9771 23.154C54.944 23.5611 55.0263 23.9693 55.2146 24.3319C55.6113 25.182 56.3594 25.5459 57.2721 25.6006C57.5912 25.6351 57.914 25.6028 58.2199 25.5058C58.5258 25.4087 58.8081 25.249 59.0487 25.0369C59.2894 24.8248 59.4831 24.565 59.6175 24.2739C59.7519 23.9829 59.824 23.6671 59.8294 23.3466C59.8487 22.0393 58.7361 21.025 57.1366 21.1055Z" fill="#8401FF"/>
<path d="M78.1085 23.089C78.3181 22.8668 78.4504 22.7316 78.5729 22.5931C79.4888 21.566 80.3917 20.5291 81.3237 19.5148C81.4812 19.3616 81.688 19.2692 81.9074 19.254C82.6555 19.225 83.4005 19.254 84.2422 19.254C83.8423 19.7177 83.4908 20.1331 83.1328 20.542C82.4266 21.3438 81.7268 22.152 81.0044 22.9345C80.7884 23.1695 80.8013 23.3176 81.0044 23.543C82.1009 24.7344 83.1876 25.9387 84.2744 27.1398C84.3486 27.2235 84.4195 27.3105 84.5388 27.4618C83.6391 27.4618 82.8103 27.4811 81.9815 27.4618C81.8171 27.4618 81.6365 27.2622 81.5043 27.1173C80.4766 26.0031 79.4533 24.8826 78.4342 23.7556C78.3596 23.6553 78.2958 23.5473 78.244 23.4336L78.0892 23.5334C78.0892 23.6654 78.0666 23.8006 78.0666 23.9327C78.0666 24.9856 78.0666 26.0386 78.0666 27.0947C78.0666 27.391 77.986 27.5037 77.6732 27.4876C77.1716 27.4586 76.6688 27.4586 76.1672 27.4876C75.8092 27.5101 75.7383 27.362 75.7383 27.0432C75.7383 24.6539 75.7383 22.2647 75.7383 19.8722C75.7383 18.9481 75.7383 18.024 75.7383 17.0998C75.7383 16.8197 75.8189 16.707 76.1124 16.7199C76.6412 16.7392 77.1701 16.7392 77.699 16.7199C77.9957 16.7199 78.0634 16.8197 78.0634 17.0998C78.0634 18.9223 78.0634 20.7481 78.0634 22.5738C78.0634 22.6833 78.0892 22.8282 78.1085 23.089Z" fill="#8401FF"/>
<path d="M73.923 27.4425H71.901C71.6075 27.4425 71.6591 27.23 71.6591 27.0625C71.6591 25.8904 71.6591 24.7216 71.6591 23.5527C71.6553 23.2197 71.6142 22.8881 71.5366 22.5642C71.4683 22.2877 71.327 22.0345 71.1273 21.8312C70.9277 21.6279 70.677 21.4818 70.4015 21.4082C69.847 21.2222 69.2482 21.2143 68.6891 21.3856C68.3071 21.5127 67.9758 21.7584 67.7437 22.0869C67.5116 22.4154 67.3909 22.8095 67.3991 23.2114C67.3991 24.4994 67.3766 25.7552 67.3991 27.0271C67.3991 27.3813 67.2927 27.4682 66.9606 27.4521C66.4188 27.4232 65.877 27.4521 65.3481 27.4521C65.1353 27.4521 65.0547 27.3877 65.0547 27.1656C65.0547 24.6218 65.0547 22.0779 65.0547 19.5341C65.0547 19.3152 65.1385 19.2379 65.3481 19.2411C65.9415 19.2411 66.5349 19.2411 67.1283 19.2411C67.3475 19.2411 67.4185 19.3345 67.4088 19.5631C67.4088 19.9399 67.4088 20.3134 67.4088 20.8028C67.5108 20.7279 67.6058 20.6438 67.6926 20.5517C67.9896 20.1482 68.3784 19.8209 68.827 19.597C69.2755 19.3731 69.771 19.2588 70.2725 19.2637C70.9337 19.2202 71.596 19.3304 72.2074 19.5857C72.723 19.8024 73.1634 20.1659 73.4737 20.6309C73.7839 21.0958 73.9502 21.6416 73.952 22.2003C74.0326 23.9037 73.9778 25.6167 73.9778 27.3266C73.962 27.3663 73.9437 27.405 73.923 27.4425Z" fill="#8401FF"/>
<path d="M55.1832 12.2279H55.5928C56.973 12.2279 58.35 12.2279 59.7302 12.2279C60.0269 12.2279 60.1398 12.2988 60.1237 12.6143C60.0979 13.1231 60.1237 13.6351 60.1237 14.1664H51.9648C51.9648 13.5385 51.9648 12.9267 51.9648 12.3149C51.9648 12.2022 52.1035 12.0766 52.2035 11.9929C53.5751 10.765 54.9478 9.54139 56.3216 8.32208C56.4315 8.23747 56.5467 8.16003 56.6666 8.09024L56.586 7.96788C56.4635 7.96788 56.3442 7.95178 56.2216 7.95178C54.9833 7.95178 53.7482 7.95178 52.5098 7.95178C52.1874 7.95178 52.0874 7.84874 52.1067 7.5364C52.1293 7.12424 52.1067 6.71208 52.1067 6.30314C52.1067 6.07452 52.1712 5.98114 52.4131 5.98114C54.778 5.98114 57.1364 5.98114 59.4884 5.98114C59.7205 5.98114 59.8302 6.05198 59.8108 6.30314C59.8044 6.34151 59.8044 6.38069 59.8108 6.41906C60.0043 7.52352 59.5948 8.30598 58.6854 8.99506C57.5599 9.84515 56.557 10.8562 55.4993 11.7932C55.3767 11.9027 55.2413 12.0025 55.1123 12.1152L55.1832 12.2279Z" fill="#8401FF"/>
<path d="M44.265 5.98114V6.46092C44.265 7.80688 44.265 9.15606 44.265 10.5052C44.2458 10.89 44.3653 11.269 44.602 11.5733C44.8387 11.8775 45.1768 12.087 45.555 12.1635C46.5547 12.3825 47.4254 12.0895 47.7543 11.3424C47.9076 10.9628 47.9865 10.5572 47.9865 10.1478C48.0155 8.92744 47.9865 7.70706 47.9865 6.48668C47.9865 5.99402 47.9865 5.9908 48.5025 5.9908C49.0184 5.9908 49.5054 5.9908 50.0084 5.9908C50.2245 5.9908 50.3051 6.06486 50.3051 6.2806C50.3051 7.8101 50.3438 9.34282 50.2729 10.8659C50.1955 12.5854 48.6605 14.044 46.8804 14.2823C45.9843 14.4181 45.068 14.2999 44.236 13.941C42.6945 13.2616 41.9561 12.0347 41.9206 10.399C41.8883 9.0498 41.9206 7.70062 41.9206 6.35144C41.9206 6.08096 42.0044 5.99724 42.2753 6.00368C42.9106 5.99402 43.5556 5.98114 44.265 5.98114Z" fill="#8401FF"/>
<path d="M70.2558 5.98112V6.72172C70.2558 7.9421 70.2332 9.16249 70.2558 10.3829C70.3074 12.4566 68.8401 13.9249 66.8439 14.2469C66.0697 14.4064 65.2663 14.3482 64.5233 14.0787C63.7802 13.8092 63.1267 13.3391 62.6355 12.7206C62.096 12.0048 61.8244 11.1231 61.868 10.2283C61.8486 8.94031 61.868 7.63298 61.868 6.33532C61.868 6.0423 61.9647 5.9618 62.2453 5.97146C62.8902 5.98756 63.5352 5.97146 64.2028 5.97146C64.2028 6.14856 64.2221 6.29346 64.2221 6.42548C64.2221 7.71348 64.2221 9.00149 64.2221 10.2895C64.2221 11.8609 65.5604 12.7013 67.0019 12.0412C67.2573 11.9275 67.4761 11.7455 67.6344 11.5154C67.7926 11.2852 67.884 11.0159 67.8984 10.7371C67.9532 10.1381 67.9565 9.53279 67.9629 8.93065C67.9629 8.05802 67.9629 7.1854 67.9629 6.30956C67.9629 6.12924 67.9629 5.98756 68.2177 5.98756C68.8755 5.98756 69.5302 5.98112 70.2558 5.98112Z" fill="#8401FF"/>
</g>
<defs>
<clipPath id="clip0_163_3526">
<rect width="85" height="32.126" fill="white" transform="translate(0.988281 0.664917)"/>
</clipPath>
</defs>
</svg>
