<svg width="21" height="21" viewBox="0 0 21 21" fill="none" xmlns="http://www.w3.org/2000/svg">
<path fill-rule="evenodd" clip-rule="evenodd" d="M17.5593 13.7324C17.4403 13.8513 17.2476 13.8513 17.1287 13.7324L10.7084 7.31218L10.7017 7.30525C10.6833 7.28565 10.6611 7.27004 10.6364 7.25936C10.6118 7.24869 10.5852 7.24318 10.5583 7.24318C10.5315 7.24318 10.5049 7.24869 10.4802 7.25936C10.4556 7.27004 10.4334 7.28565 10.415 7.30525L10.4083 7.31218L3.988 13.7324C3.8691 13.8513 3.67631 13.8513 3.5574 13.7324C3.43849 13.6135 3.43849 13.4207 3.5574 13.3018L9.97463 6.88459C10.0492 6.80615 10.1389 6.74354 10.2383 6.70052C10.3393 6.65678 10.4482 6.63422 10.5583 6.63422C10.6684 6.63422 10.7773 6.65678 10.8784 6.70052C10.9777 6.74354 11.0674 6.80615 11.142 6.88459L17.5593 13.3018C17.6782 13.4207 17.6782 13.6135 17.5593 13.7324Z" fill="#0D0E0F"/>
</svg>
