<svg width="16" height="16" viewBox="0 0 16 16" fill="none" xmlns="http://www.w3.org/2000/svg">
<path d="M6.00069 10.8L3.66736 8.46667C3.60634 8.40491 3.53367 8.35588 3.45357 8.32241C3.37346 8.28894 3.28751 8.27171 3.20069 8.27171C3.11387 8.27171 3.02792 8.28894 2.94781 8.32241C2.8677 8.35588 2.79504 8.40491 2.73402 8.46667C2.67226 8.52768 2.62323 8.60035 2.58976 8.68046C2.5563 8.76057 2.53906 8.84652 2.53906 8.93334C2.53906 9.02015 2.5563 9.10611 2.58976 9.18621C2.62323 9.26632 2.67226 9.33899 2.73402 9.4L5.52736 12.1933C5.78736 12.4533 6.20736 12.4533 6.46736 12.1933L13.534 5.13334C13.5958 5.07232 13.6448 4.99965 13.6783 4.91955C13.7117 4.83944 13.729 4.75349 13.729 4.66667C13.729 4.57985 13.7117 4.4939 13.6783 4.41379C13.6448 4.33369 13.5958 4.26102 13.534 4.2C13.473 4.13824 13.4003 4.08921 13.3202 4.05574C13.2401 4.02228 13.1542 4.00504 13.0674 4.00504C12.9805 4.00504 12.8946 4.02228 12.8145 4.05574C12.7344 4.08921 12.6617 4.13824 12.6007 4.2L6.00069 10.8Z" fill="white"/>
</svg>
