<svg width="34" height="34" viewBox="0 0 34 34" fill="none" xmlns="http://www.w3.org/2000/svg">
<path d="M17 31.1905L17 13.8349" stroke="#9A9A9A" stroke-linecap="round" stroke-linejoin="round"/>
<path d="M31.483 7.76205C31.3622 7.59902 31.197 7.47382 31.007 7.40127L17.407 2.28269C17.2783 2.22682 17.1394 2.19798 16.999 2.19798C16.8585 2.19798 16.7196 2.22682 16.591 2.28269L2.99096 7.49146C2.81128 7.53881 2.64718 7.63209 2.51496 7.76205C2.35663 7.95259 2.26864 8.19132 2.26562 8.43851V24.9442C2.26856 25.1694 2.33923 25.3886 2.4685 25.5734C2.59778 25.7583 2.77975 25.9004 2.99096 25.9815L16.591 31.1903H16.999H17.407L31.007 25.9815C31.2182 25.9004 31.4001 25.7583 31.5294 25.5734C31.6587 25.3886 31.7294 25.1694 31.7323 24.9442V8.52871C31.7515 8.25076 31.6622 7.97615 31.483 7.76205V7.76205Z" stroke="#9A9A9A" stroke-linecap="round" stroke-linejoin="round"/>
<path d="M17 13.8348V30.284" stroke="#9A9A9A" stroke-linecap="round" stroke-linejoin="round"/>
<path d="M2.51562 8.28783L16.9996 13.8348L31.4836 8.28783" stroke="#9A9A9A" stroke-linecap="round" stroke-linejoin="round"/>
</svg>
