<svg width="0" height="0">
	<symbol viewBox="0 0 60 46" id="logo" xmlns="http://www.w3.org/2000/svg">
		<path d="M59.2873 37.7516C58.7019 36.7033 58.0053 35.6894 57.1351 34.8633C57.0919 34.9721 57.1305 35.0575 57.1838 35.1448C58.0562 36.5733 59.0109 37.966 59.3778 39.6274C60.241 44.12 53.1099 42.1373 50.7423 41.5688C46.1583 40.262 41.9448 37.9931 37.6096 36.0664C37.2423 35.9943 37.2473 35.8368 37.2882 35.5071C37.2836 31.227 37.2909 26.9469 37.2712 22.6673C37.2689 22.2187 37.42 21.9749 37.7988 21.7705C42.3296 19.0117 47.4876 15.5963 48.9464 10.1991C49.9006 7.45725 48.8482 3.05595 45.8699 1.93095C38.1873 -0.332839 34.6378 10.0374 33.3341 15.836C32.5852 18.4869 32.4341 21.2792 31.6163 23.9103C31.6622 24.3718 28.8424 24.4122 28.6509 24.1399C31.4189 17.8583 31.4767 1.41023 40.2348 1.04702C39.2489 0.832116 38.1762 1.13885 37.2762 1.56176C33.0444 3.74841 31.6838 8.90277 30.4803 13.1663C29.5357 16.6079 28.9397 20.1409 27.8836 23.5536C27.7412 24.3268 27.2315 23.565 26.7815 23.5076C26.6084 23.4158 26.4808 23.2583 26.2764 23.2271L25.6795 22.8138C22.6741 20.1244 23.8317 14.9103 26.9886 12.8802C26.9501 12.5441 26.18 13.0639 26.0895 13.2177C23.0337 15.195 21.6134 19.3249 22.6792 22.7688C23.2499 24.6744 25.3755 25.3205 27.1682 25.4197C27.2903 25.4238 27.3339 25.4656 27.2807 25.5901C26.7214 27.2349 26.1327 28.87 25.4439 30.4684C25.2084 30.5846 25.0114 30.4285 24.8176 30.3546C23.0892 29.6961 21.3195 29.1777 19.5218 28.7474C19.4661 28.7371 19.4144 28.7116 19.3722 28.6738C19.3301 28.636 19.2992 28.5872 19.283 28.533C18.4749 26.4005 17.6584 24.2717 16.8526 22.1383C14.7265 16.4091 12.4903 10.7216 10.378 4.98224C10.2545 4.63188 10.2403 4.61489 9.87293 4.63096C7.07419 4.78295 4.2704 4.85045 1.4657 4.69571C1.046 4.67504 0.626303 4.65989 0.206148 4.64198C0.099617 4.63877 0.0100757 4.64061 0.0137492 4.79306C0.0716067 5.00933 -0.129517 5.87627 0.166658 5.83311C1.7683 5.99291 3.94622 5.90428 4.33515 7.87603C4.82326 9.91665 4.52663 12.0546 4.60423 14.1352C4.33928 23.3387 5.16214 32.6601 4.24653 41.8039C3.70331 43.5135 1.74764 43.7816 0.196046 43.8294C0.0711475 43.8344 0.0316575 43.8556 0.0325759 43.9722C0.0325759 44.1862 0.0325759 44.3997 0.0293616 44.615C0.0266064 45.0421 0.0261473 45.0403 0.448598 45.0177C3.97239 44.8295 7.50721 44.8841 11.0315 45.0458C11.1642 45.0531 11.2128 45.0086 11.2073 44.8805C11.1504 44.6825 11.2918 43.8344 11.0338 43.8771C9.66538 43.7219 8.10782 43.772 7.01358 42.8086C6.03643 41.6271 6.00337 39.9722 5.9547 38.5115C5.91245 28.4949 6.01026 18.4492 5.93082 8.44818C6.08694 8.73792 6.19256 9.02399 6.34409 9.32614C6.902 10.7721 7.47001 12.2447 8.0518 13.6829C9.64977 18.1788 11.4957 22.6099 13.1947 27.0769C13.2807 27.398 13.4012 27.7089 13.5542 28.004C13.5786 28.2662 13.7016 28.4962 13.8146 28.724C14.0717 29.1065 13.1681 29.1152 12.8751 29.5101C12.5454 29.602 12.3351 29.8623 12.1115 30.091C12.0022 30.2026 11.841 30.2944 11.8203 30.4795C9.70074 33.9188 13.0904 37.7318 16.2584 38.9262C16.7568 39.1515 17.2812 39.3142 17.8196 39.4106C17.9312 39.4295 17.9991 39.4662 18.0386 39.5732C18.6025 41.1895 19.2784 42.7595 19.9456 44.3354C19.9916 44.4442 19.9741 44.6481 20.088 44.6435C20.211 44.6385 20.2487 44.4465 20.2951 44.3221C20.8401 42.7916 21.4678 41.2915 21.9582 39.7417C21.9706 39.6958 21.9582 39.637 22.0042 39.5994C22.1332 39.4391 22.1878 39.2472 22.2361 39.0529C22.282 38.9464 22.3279 38.8394 22.3706 38.7315C23.1632 38.4946 23.9038 38.0629 24.5228 37.5376C25.4347 36.8124 26.2542 35.9781 26.9629 35.0534C27.4795 34.3729 27.9649 33.6694 28.4704 32.9811C28.672 32.7056 28.728 32.7056 29.0136 32.8737C31.2483 34.1686 33.4632 35.4942 35.6581 36.8507C35.8459 36.9613 35.9157 37.1041 35.912 37.3195C35.8454 38.9648 36.0957 40.7634 35.2691 42.2613C34.2589 43.5598 32.5503 43.7972 31.0033 43.8174C30.4605 43.8124 30.7507 44.5843 30.6713 44.9264C30.6548 45.1688 30.9266 45.0908 31.0814 45.0999C33.915 44.9195 36.7596 44.8906 39.5979 44.987C40.3303 44.9838 41.0585 45.0903 41.7942 45.0605C41.8617 45.0605 41.942 45.0673 41.9384 44.9627C41.8828 44.7234 42.0394 43.8174 41.7257 43.8243C40.7114 43.7394 39.6879 43.6094 38.7516 43.1815C37.1082 42.1253 37.3125 39.8372 37.2859 38.1226C37.2514 37.9307 37.3483 37.8623 37.5118 38.0005C39.8435 39.502 42.2148 40.9875 44.6921 42.2571C47.9431 43.7894 51.5496 45.5591 55.2309 44.7771C58.7299 43.9437 61.3109 41.3916 59.2873 37.7516ZM37.2464 21.175C37.1793 21.2241 37.0875 21.2618 37.1008 21.3688C37.0976 21.3632 37.0949 21.3573 37.0912 21.3518C36.351 21.7053 35.687 22.2825 34.939 22.6586C34.5799 22.8423 33.0164 23.8093 32.7551 23.4277C35.0662 17.8743 38.1028 5.08326 44.4138 3.32045C45.4061 3.15009 46.3608 3.52478 47.247 3.93621C47.5386 4.16902 47.6639 4.32101 47.9468 4.58413C48.5897 5.77801 48.366 6.39929 48.406 7.62623C47.9431 10.3887 45.5439 13.4887 43.5845 15.4434C41.6087 17.4969 39.5579 19.4967 37.2468 21.1768L37.2464 21.175ZM22.6929 21.1552C22.6932 21.1577 22.6932 21.1601 22.6929 21.1626L22.6874 21.1566L22.6929 21.1552ZM25.0522 31.0819C24.2836 32.6891 23.2738 34.2232 21.9817 35.4277C21.8246 35.4244 21.8343 35.2169 21.7778 35.1085C21.0628 33.2676 20.3823 31.4134 19.6885 29.5648C19.5443 29.1809 19.5379 29.1836 19.9328 29.2397C19.9349 29.2373 19.9369 29.2349 19.9387 29.2323C19.9204 29.3242 20.0568 29.3476 20.1197 29.365C21.8113 29.7967 23.4235 30.4707 25.0527 31.0838L25.0522 31.0819ZM18.5093 40.5669L18.5148 40.5701H18.5111C18.5111 40.5701 18.5098 40.5687 18.5093 40.5669ZM14.9938 17.2774C14.9919 17.2679 14.9906 17.2582 14.9901 17.2485L14.9938 17.2774ZM4.51745 8.39537C4.56972 8.69659 4.60209 9.00092 4.61433 9.30639C4.59183 9.00241 4.56061 8.69889 4.51745 8.39537ZM14.1144 36.1072C12.094 34.5047 11.0462 31.0346 13.793 29.6736C14.1401 29.6736 14.1576 29.6621 14.2632 30.0037C14.4124 30.4675 14.6237 30.907 14.7922 31.3629C14.8257 31.4548 14.8381 31.5719 14.9502 31.6155C15.3818 33.1469 16.1284 34.6094 16.6455 36.1256C16.819 36.5894 16.9292 37.0766 17.1689 37.5165C17.3962 38.0046 16.0329 37.2355 15.8704 37.2841C15.2872 36.8902 14.6453 36.5839 14.1158 36.1072H14.1144ZM24.532 36.0645V36.0678H24.5292L24.532 36.0645ZM27.8978 32.611C26.8835 34.3421 25.2345 35.5576 23.564 36.5687H23.5608C23.1884 36.6606 22.8688 36.9572 22.5001 37.0578C22.5341 36.8906 22.3926 36.7542 22.3357 36.6068C22.2569 36.3424 22.1543 36.0858 22.029 35.84C22.0156 35.8158 22.0083 35.7886 22.0078 35.761C22.0072 35.7333 22.0134 35.7059 22.0257 35.6811C23.4423 34.5469 24.7042 33.1652 25.601 31.5746C25.8466 31.222 26.2829 31.6463 26.5758 31.734C26.788 31.8763 28.166 32.3176 27.8992 32.611H27.8978ZM28.5613 31.34C28.3318 31.779 28.447 31.7615 27.9327 31.5962C27.3142 31.3974 26.7388 31.0874 26.1267 30.8739C25.955 30.8142 26.0133 30.7146 26.068 30.6039C26.8441 29.05 27.5369 27.4559 28.1435 25.8284C28.3111 25.731 28.2353 25.455 28.492 25.4284C29.1578 25.4059 29.797 25.2296 30.4417 25.0868C31.4239 24.8572 30.8026 25.9243 30.7347 26.3936C30.0532 28.0628 29.3971 29.742 28.5613 31.34ZM29.3479 32.0898C29.1643 32.0021 29.1349 31.9204 29.2212 31.7399C30.348 29.4229 31.2935 27.0291 32.2215 24.6276C32.2624 24.5234 32.3427 24.4807 32.441 24.4439C33.5639 24.0426 34.6489 23.5424 35.6833 22.9493C35.8964 22.8285 35.9129 22.8363 35.9129 23.0944C35.9129 25.0588 35.9129 27.0233 35.9129 28.988H35.917C35.917 30.8912 35.917 32.7947 35.917 34.6985C35.917 35.2463 35.9065 35.2495 35.4225 35.0139C33.3957 34.0392 31.3702 33.0645 29.3461 32.0898H29.3479Z" fill="currentColor" />
	</symbol>
	<symbol xmlns="http://www.w3.org/2000/svg" id="favorites" viewBox="0 0 48 48">
		<path stroke-linecap="round" stroke-linejoin="round" stroke-width="2" d="M15 8C8.925 8 4 12.925 4 19c0 11 13 21 20 23.326C31 40 44 30 44 19c0-6.075-4.925-11-11-11c-3.72 0-7.01 1.847-9 4.674A10.987 10.987 0 0 0 15 8" />
	</symbol>
	<symbol viewBox="0 0 20 21" id="search" xmlns="http://www.w3.org/2000/svg">
		<path fill-rule="evenodd" clip-rule="evenodd" d="M13.0108 14.1188C11.7372 15.2287 10.0721 15.9009 8.25 15.9009C4.24594 15.9009 1 12.6549 1 8.65088C1 4.64681 4.24594 1.40088 8.25 1.40088C12.2541 1.40088 15.5 4.64681 15.5 8.65088C15.5 10.473 14.8278 12.1381 13.7179 13.4117L19.8536 19.5473L19.1464 20.2544L13.0108 14.1188ZM14.5 8.65088C14.5 12.1027 11.7018 14.9009 8.25 14.9009C4.79822 14.9009 2 12.1027 2 8.65088C2 5.1991 4.79822 2.40088 8.25 2.40088C11.7018 2.40088 14.5 5.1991 14.5 8.65088Z" fill="currentColor" />
	</symbol>
	<symbol viewBox="0 0 20 21" id="profile" xmlns="http://www.w3.org/2000/svg">
		<path d="M7.5 5.40088C7.5 4.60523 7.81607 3.84217 8.37868 3.27956C8.94129 2.71695 9.70435 2.40088 10.5 2.40088C11.2956 2.40088 12.0587 2.71695 12.6213 3.27956C13.1839 3.84217 13.5 4.60523 13.5 5.40088C13.5 6.19653 13.1839 6.95959 12.6213 7.5222C12.0587 8.08481 11.2956 8.40088 10.5 8.40088C9.70435 8.40088 8.94129 8.08481 8.37868 7.5222C7.81607 6.95959 7.5 6.19653 7.5 5.40088ZM10.5 1.40088C9.43913 1.40088 8.42172 1.82231 7.67157 2.57245C6.92143 3.3226 6.5 4.34001 6.5 5.40088C6.5 6.46174 6.92143 7.47916 7.67157 8.22931C8.42172 8.97945 9.43913 9.40088 10.5 9.40088C11.5609 9.40088 12.5783 8.97945 13.3284 8.22931C14.0786 7.47916 14.5 6.46174 14.5 5.40088C14.5 4.34001 14.0786 3.3226 13.3284 2.57245C12.5783 1.82231 11.5609 1.40088 10.5 1.40088ZM16.08 13.5509C17.2 14.3709 17.91 15.7909 17.99 18.4009H3.01C3.09 15.8009 3.8 14.3709 4.91 13.5509C6.16 12.6509 8 12.4009 10.5 12.4009C13 12.4009 14.85 12.6609 16.08 13.5509ZM10.5 11.4009C8 11.4009 5.85 11.6409 4.33 12.7509C2.77 13.8809 2 15.8309 2 18.9009V19.4009H19V18.9009C19 15.8309 18.23 13.8809 16.67 12.7509C15.15 11.6509 13 11.4009 10.5 11.4009Z" fill="currentColor" />
	</symbol>
	<symbol viewBox="0 0 20 21" id="cart" xmlns="http://www.w3.org/2000/svg">
		<path fill-rule="evenodd" clip-rule="evenodd" d="M4.94157 2.40088H1.78157L1.01157 14.0009C0.964968 14.6847 1.05944 15.3708 1.28913 16.0165C1.51882 16.6623 1.87882 17.2539 2.34677 17.7547C2.81472 18.2554 3.38063 18.6547 4.00936 18.9275C4.63808 19.2004 5.31619 19.3411 6.00157 19.3409H13.3816C14.0661 19.341 14.7433 19.2006 15.3713 18.9283C15.9993 18.6561 16.5647 18.2578 17.0325 17.7581C17.5003 17.2584 17.8605 16.668 18.0909 16.0234C18.3212 15.3789 18.4167 14.6939 18.3716 14.0109L17.5916 2.40088H11.2666H4.94157ZM2.72157 3.40088H4.94157V4.03088C4.94157 4.65466 5.06444 5.27233 5.30315 5.84863C5.54186 6.42492 5.89174 6.94856 6.33282 7.38964C6.7739 7.83071 7.29753 8.1806 7.87383 8.41931C8.45012 8.65802 9.06779 8.78088 9.69157 8.78088C10.3154 8.78088 10.933 8.65802 11.5093 8.41931C12.0856 8.1806 12.6093 7.83071 13.0503 7.38964C13.4914 6.94856 13.8413 6.42492 14.08 5.84863C14.3187 5.27233 14.4416 4.65466 14.4416 4.03088V3.40088H16.6616L17.3816 14.0709C17.4186 14.6184 17.3426 15.1677 17.1582 15.6847C16.9739 16.2016 16.6851 16.675 16.3099 17.0755C15.9347 17.476 15.4811 17.7951 14.9773 18.0127C14.4736 18.2304 13.9304 18.3421 13.3816 18.3409H6.00157C5.45361 18.3408 4.91152 18.2281 4.40893 18.0098C3.90633 17.7915 3.45394 17.4722 3.07982 17.0719C2.70571 16.6715 2.41784 16.1985 2.23408 15.6823C2.05032 15.1661 1.97459 14.6176 2.01157 14.0709L2.72157 3.40088ZM5.94157 3.40088H13.4416V4.03088C13.4416 5.02544 13.0465 5.97927 12.3432 6.68253C11.64 7.38579 10.6861 7.78088 9.69157 7.78088C8.69701 7.78088 7.74318 7.38579 7.03992 6.68253C6.33666 5.97927 5.94157 5.02544 5.94157 4.03088V3.40088Z" fill="currentColor" />
	</symbol>
	<symbol viewBox="0 0 25 25" id="arr" xmlns="http://www.w3.org/2000/svg">
		<path fill-rule="evenodd" clip-rule="evenodd" d="M8.65183 21.0096C8.50914 20.8669 8.50914 20.6355 8.65183 20.4928L16.3561 12.7885L16.3644 12.7805C16.388 12.7584 16.4067 12.7318 16.4195 12.7022C16.4323 12.6726 16.4389 12.6407 16.4389 12.6084C16.4389 12.5762 16.4323 12.5443 16.4195 12.5147C16.4067 12.4851 16.388 12.4585 16.3644 12.4364L16.3561 12.4284L8.65183 4.72406C8.50914 4.58137 8.50914 4.35002 8.65183 4.20733C8.79452 4.06464 9.02586 4.06464 9.16855 4.20733L16.8692 11.908C16.9634 11.9975 17.0385 12.1051 17.0901 12.2244C17.1426 12.3456 17.1697 12.4763 17.1697 12.6084C17.1697 12.7406 17.1426 12.8713 17.0901 12.9925C17.0385 13.1117 16.9634 13.2193 16.8692 13.3089L9.16855 21.0096C9.02586 21.1522 8.79452 21.1522 8.65183 21.0096Z" fill="currentColor" />
	</symbol>
	<symbol xmlns="http://www.w3.org/2000/svg" id="tel" viewBox="0 0 32 32">
		<path fill="currentColor" d="M8.656 3c-.523 0-1.039.188-1.469.531l-.062.031l-.031.032l-3.125 3.219l.031.03a3.134 3.134 0 0 0-.844 3.376c.004.008-.004.023 0 .031c.848 2.426 3.016 7.11 7.25 11.344c4.25 4.25 8.996 6.332 11.344 7.25h.031a3.59 3.59 0 0 0 3.469-.688L28.406 25c.828-.828.828-2.266 0-3.094l-4.062-4.062l-.032-.063c-.828-.828-2.296-.828-3.125 0l-2 2a16.176 16.176 0 0 1-4.093-2.812c-1.637-1.563-2.473-3.36-2.781-4.063l2-2c.84-.84.855-2.238-.032-3.062l.031-.032l-.093-.093l-4-4.125l-.031-.031l-.063-.032A2.356 2.356 0 0 0 8.656 3m0 2a.35.35 0 0 1 .219.094l4 4.093l.094.094c-.008-.008.058.098-.063.219l-2.5 2.5l-.469.438l.22.624s1.148 3.075 3.562 5.376l.219.187C16.261 20.746 19 21.906 19 21.906l.625.282l2.969-2.97c.172-.171.14-.171.312 0L27 23.314c.172.171.172.109 0 .28l-3.063 3.063c-.46.395-.949.477-1.53.282c-2.266-.891-6.669-2.825-10.595-6.75c-3.957-3.958-6.023-8.446-6.78-10.625c-.153-.407-.044-1.008.312-1.313l.062-.063l3.032-3.093A.35.35 0 0 1 8.655 5z" />
	</symbol>
	<symbol xmlns="http://www.w3.org/2000/svg" id="mail" viewBox="0 0 24 24">
		<path fill="currentColor" d="M4.615 19q-.69 0-1.152-.462Q3 18.075 3 17.385V6.615q0-.69.463-1.152Q3.925 5 4.615 5h14.77q.69 0 1.152.463q.463.462.463 1.152v10.77q0 .69-.462 1.152q-.463.463-1.153.463zM12 12.115l-8-5.23v10.5q0 .269.173.442t.442.173h14.77q.269 0 .442-.173t.173-.442v-10.5zM12 11l7.692-5H4.308zM4 6.885V6v11.385q0 .269.173.442t.442.173H4z" />
	</symbol>
	<symbol xmlns="http://www.w3.org/2000/svg" id="close" viewBox="0 0 24 24">
		<path fill="currentColor" d="m6.4 18.308l-.708-.708l5.6-5.6l-5.6-5.6l.708-.708l5.6 5.6l5.6-5.6l.708.708l-5.6 5.6l5.6 5.6l-.708.708l-5.6-5.6z" />
	</symbol>
	<symbol xmlns="http://www.w3.org/2000/svg" id="burger" viewBox="0 0 8 8">
		<path fill="currentColor" d="M0 1v1h8V1zm0 2.97v1h8v-1zm0 3v1h8v-1z" />
	</symbol>
	<symbol id="arrow-left" xmlns="http://www.w3.org/2000/svg" width="25" height="25" viewBox="0 0 25 25">
		<path fill-rule="evenodd" clip-rule="evenodd" d="M16.6995 3.84798C16.8422 3.99067 16.8422 4.22202 16.6995 4.36471L8.9952 12.069L8.98688 12.0771C8.96337 12.0991 8.94463 12.1258 8.93182 12.1554C8.91901 12.185 8.9124 12.2169 8.9124 12.2491C8.9124 12.2813 8.91901 12.3132 8.93182 12.3428C8.94463 12.3724 8.96337 12.3991 8.98688 12.4211L8.9952 12.4292L16.6995 20.1335C16.8422 20.2762 16.8422 20.5075 16.6995 20.6502C16.5568 20.7929 16.3255 20.7929 16.1828 20.6502L8.48209 12.9495C8.38796 12.86 8.31283 12.7524 8.2612 12.6331C8.20872 12.5119 8.18164 12.3812 8.18164 12.2491C8.18164 12.117 8.20872 11.9863 8.2612 11.865C8.31283 11.7458 8.38796 11.6382 8.48209 11.5487L16.1828 3.84798C16.3255 3.70529 16.5568 3.70529 16.6995 3.84798Z" />
	</symbol>
	<symbol id="arrow-right" xmlns="http://www.w3.org/2000/svg" width="25" height="25" viewBox="0 0 25 25">
		<path fill-rule="evenodd" clip-rule="evenodd" d="M8.2927 3.84798C8.15001 3.99067 8.15001 4.22202 8.2927 4.36471L15.997 12.069L16.0053 12.0771C16.0288 12.0991 16.0476 12.1258 16.0604 12.1554C16.0732 12.185 16.0798 12.2169 16.0798 12.2491C16.0798 12.2813 16.0732 12.3132 16.0604 12.3428C16.0476 12.3724 16.0288 12.3991 16.0053 12.4211L15.997 12.4292L8.29269 20.1335C8.15 20.2762 8.15 20.5075 8.29269 20.6502C8.43538 20.7929 8.66673 20.7929 8.80942 20.6502L16.5101 12.9495C16.6042 12.86 16.6794 12.7524 16.731 12.6331C16.7835 12.5119 16.8105 12.3812 16.8105 12.2491C16.8105 12.117 16.7835 11.9863 16.731 11.865C16.6794 11.7458 16.6042 11.6382 16.5101 11.5487L8.80942 3.84798C8.66673 3.70529 8.43539 3.70529 8.2927 3.84798Z" />
	</symbol>
	<symbol id="filter-logo" xmlns="http://www.w3.org/2000/svg" width="23" height="23" viewBox="0 0 23 23" fill="none">
		<g clip-path="url(#clip0_341_3587)">
			<path d="M19.5508 6.91431H7.86328C7.68094 6.91431 7.50608 6.84187 7.37715 6.71294C7.24821 6.58401 7.17578 6.40914 7.17578 6.22681C7.17578 6.04447 7.24821 5.8696 7.37715 5.74067C7.50608 5.61174 7.68094 5.53931 7.86328 5.53931H19.5508C19.7331 5.53931 19.908 5.61174 20.0369 5.74067C20.1658 5.8696 20.2383 6.04447 20.2383 6.22681C20.2383 6.40914 20.1658 6.58401 20.0369 6.71294C19.908 6.84187 19.7331 6.91431 19.5508 6.91431Z" fill="#0D0E0F" />
			<path d="M5.11328 6.91431H3.05078C2.86844 6.91431 2.69358 6.84187 2.56465 6.71294C2.43571 6.58401 2.36328 6.40914 2.36328 6.22681C2.36328 6.04447 2.43571 5.8696 2.56465 5.74067C2.69358 5.61174 2.86844 5.53931 3.05078 5.53931H5.11328C5.29562 5.53931 5.47049 5.61174 5.59942 5.74067C5.72835 5.8696 5.80078 6.04447 5.80078 6.22681C5.80078 6.40914 5.72835 6.58401 5.59942 6.71294C5.47049 6.84187 5.29562 6.91431 5.11328 6.91431Z" fill="#0D0E0F" />
			<path d="M14.7383 12.4143H3.05078C2.86844 12.4143 2.69358 12.3419 2.56465 12.2129C2.43571 12.084 2.36328 11.9091 2.36328 11.7268C2.36328 11.5445 2.43571 11.3696 2.56465 11.2407C2.69358 11.1117 2.86844 11.0393 3.05078 11.0393H14.7383C14.9206 11.0393 15.0955 11.1117 15.2244 11.2407C15.3533 11.3696 15.4258 11.5445 15.4258 11.7268C15.4258 11.9091 15.3533 12.084 15.2244 12.2129C15.0955 12.3419 14.9206 12.4143 14.7383 12.4143Z" fill="#0D0E0F" />
			<path d="M7.86328 17.9143H3.05078C2.86844 17.9143 2.69358 17.8419 2.56465 17.7129C2.43571 17.584 2.36328 17.4091 2.36328 17.2268C2.36328 17.0445 2.43571 16.8696 2.56465 16.7407C2.69358 16.6117 2.86844 16.5393 3.05078 16.5393H7.86328C8.04562 16.5393 8.22049 16.6117 8.34942 16.7407C8.47835 16.8696 8.55078 17.0445 8.55078 17.2268C8.55078 17.4091 8.47835 17.584 8.34942 17.7129C8.22049 17.8419 8.04562 17.9143 7.86328 17.9143Z" fill="#0D0E0F" />
			<path d="M6.48828 8.28931C6.08036 8.28931 5.68159 8.16834 5.34242 7.94171C5.00324 7.71508 4.73889 7.39296 4.58278 7.01609C4.42667 6.63922 4.38583 6.22452 4.46541 5.82443C4.54499 5.42435 4.74143 5.05685 5.02987 4.7684C5.31832 4.47995 5.68582 4.28352 6.08591 4.20394C6.48599 4.12436 6.90069 4.1652 7.27757 4.32131C7.65444 4.47741 7.97656 4.74177 8.20319 5.08094C8.42982 5.42012 8.55078 5.81888 8.55078 6.22681C8.55078 6.77382 8.33348 7.29842 7.94669 7.68522C7.5599 8.07201 7.03529 8.28931 6.48828 8.28931ZM6.48828 5.53931C6.35231 5.53931 6.21939 5.57963 6.10633 5.65517C5.99327 5.73072 5.90515 5.83809 5.85311 5.96371C5.80108 6.08934 5.78746 6.22757 5.81399 6.36093C5.84052 6.49429 5.906 6.61679 6.00215 6.71294C6.0983 6.80909 6.2208 6.87457 6.35416 6.9011C6.48752 6.92762 6.62575 6.91401 6.75138 6.86197C6.877 6.80994 6.98437 6.72182 7.05992 6.60876C7.13546 6.4957 7.17578 6.36278 7.17578 6.22681C7.17578 6.04447 7.10335 5.8696 6.97442 5.74067C6.84549 5.61174 6.67062 5.53931 6.48828 5.53931Z" fill="#0D0E0F" />
			<path d="M16.1133 13.7893C15.7054 13.7893 15.3066 13.6683 14.9674 13.4417C14.6282 13.2151 14.3639 12.893 14.2078 12.5161C14.0517 12.1392 14.0108 11.7245 14.0904 11.3244C14.17 10.9243 14.3664 10.5568 14.6549 10.2684C14.9433 9.97995 15.3108 9.78352 15.7109 9.70394C16.111 9.62436 16.5257 9.6652 16.9026 9.82131C17.2794 9.97741 17.6016 10.2418 17.8282 10.5809C18.0548 10.9201 18.1758 11.3189 18.1758 11.7268C18.1758 12.2738 17.9585 12.7984 17.5717 13.1852C17.1849 13.572 16.6603 13.7893 16.1133 13.7893ZM16.1133 11.0393C15.9773 11.0393 15.8444 11.0796 15.7313 11.1552C15.6183 11.2307 15.5302 11.3381 15.4781 11.4637C15.4261 11.5893 15.4125 11.7276 15.439 11.8609C15.4655 11.9943 15.531 12.1168 15.6271 12.2129C15.7233 12.3091 15.8458 12.3746 15.9792 12.4011C16.1125 12.4276 16.2508 12.414 16.3764 12.362C16.502 12.3099 16.6094 12.2218 16.6849 12.1088C16.7605 11.9957 16.8008 11.8628 16.8008 11.7268C16.8008 11.5445 16.7284 11.3696 16.5994 11.2407C16.4705 11.1117 16.2956 11.0393 16.1133 11.0393Z" fill="#0D0E0F" />
			<path d="M9.23828 19.2893C8.83036 19.2893 8.4316 19.1683 8.09242 18.9417C7.75324 18.7151 7.48889 18.393 7.33278 18.0161C7.17667 17.6392 7.13583 17.2245 7.21541 16.8244C7.29499 16.4243 7.49143 16.0568 7.77987 15.7684C8.06832 15.48 8.43582 15.2835 8.83591 15.2039C9.23599 15.1244 9.65069 15.1652 10.0276 15.3213C10.4044 15.4774 10.7266 15.7418 10.9532 16.0809C11.1798 16.4201 11.3008 16.8189 11.3008 17.2268C11.3008 17.7738 11.0835 18.2984 10.6967 18.6852C10.3099 19.072 9.78529 19.2893 9.23828 19.2893ZM9.23828 16.5393C9.10231 16.5393 8.96939 16.5796 8.85633 16.6552C8.74327 16.7307 8.65515 16.8381 8.60312 16.9637C8.55108 17.0893 8.53747 17.2276 8.56399 17.3609C8.59052 17.4943 8.656 17.6168 8.75215 17.7129C8.8483 17.8091 8.9708 17.8746 9.10416 17.9011C9.23752 17.9276 9.37575 17.914 9.50138 17.862C9.627 17.8099 9.73437 17.7218 9.80992 17.6088C9.88546 17.4957 9.92578 17.3628 9.92578 17.2268C9.92578 17.0445 9.85335 16.8696 9.72442 16.7407C9.59549 16.6117 9.42062 16.5393 9.23828 16.5393Z" fill="#0D0E0F" />
			<path d="M19.5508 12.4143H17.4883C17.3059 12.4143 17.1311 12.3419 17.0021 12.2129C16.8732 12.084 16.8008 11.9091 16.8008 11.7268C16.8008 11.5445 16.8732 11.3696 17.0021 11.2407C17.1311 11.1117 17.3059 11.0393 17.4883 11.0393H19.5508C19.7331 11.0393 19.908 11.1117 20.0369 11.2407C20.1658 11.3696 20.2383 11.5445 20.2383 11.7268C20.2383 11.9091 20.1658 12.084 20.0369 12.2129C19.908 12.3419 19.7331 12.4143 19.5508 12.4143Z" fill="#0D0E0F" />
			<path d="M19.5508 17.9143H10.6133C10.4309 17.9143 10.2561 17.8419 10.1271 17.7129C9.99821 17.584 9.92578 17.4091 9.92578 17.2268C9.92578 17.0445 9.99821 16.8696 10.1271 16.7407C10.2561 16.6117 10.4309 16.5393 10.6133 16.5393H19.5508C19.7331 16.5393 19.908 16.6117 20.0369 16.7407C20.1658 16.8696 20.2383 17.0445 20.2383 17.2268C20.2383 17.4091 20.1658 17.584 20.0369 17.7129C19.908 17.8419 19.7331 17.9143 19.5508 17.9143Z" fill="#0D0E0F" />
		</g>
		<defs>
			<clipPath id="clip0_341_3587">
				<rect width="22" height="22" fill="white" transform="translate(0.300781 0.726807)" />
			</clipPath>
		</defs>
	</symbol>
	<symbol id="arrow-down" xmlns="http://www.w3.org/2000/svg" width="21" height="21" viewBox="0 0 21 21" fill="none">
		<path fill-rule="evenodd" clip-rule="evenodd" d="M3.74934 7.22357C3.86825 7.10466 4.06103 7.10466 4.17994 7.22357L10.6002 13.6438L10.6069 13.6507C10.6253 13.6703 10.6475 13.686 10.6722 13.6966C10.6968 13.7073 10.7234 13.7128 10.7503 13.7128C10.7771 13.7128 10.8037 13.7073 10.8284 13.6966C10.853 13.686 10.8752 13.6703 10.8936 13.6507L10.9003 13.6438L17.3206 7.22357C17.4395 7.10466 17.6323 7.10466 17.7512 7.22357C17.8701 7.34248 17.8701 7.53526 17.7512 7.65417L11.334 14.0714C11.2594 14.1498 11.1697 14.2125 11.0703 14.2555C10.9693 14.2992 10.8604 14.3218 10.7503 14.3218C10.6402 14.3218 10.5313 14.2992 10.4302 14.2555C10.3308 14.2125 10.2412 14.1498 10.1666 14.0714L3.74934 7.65417C3.63043 7.53526 3.63043 7.34248 3.74934 7.22357Z" fill="#0D0E0F" />
	</symbol>
	<symbol id="arrow-top" xmlns="http://www.w3.org/2000/svg" width="15" height="8" viewBox="0 0 15 8" fill="none">
		<path fill-rule="evenodd" clip-rule="evenodd" d="M14.5593 7.73242C14.4403 7.85133 14.2476 7.85133 14.1287 7.73242L7.70841 1.31218L7.70169 1.30525C7.6833 1.28565 7.66109 1.27004 7.63644 1.25936C7.61178 1.24869 7.5852 1.24318 7.55833 1.24318C7.53146 1.24318 7.50488 1.24869 7.48022 1.25936C7.45556 1.27004 7.43335 1.28565 7.41497 1.30525L7.40825 1.31218L0.988005 7.73243C0.869096 7.85133 0.676309 7.85133 0.5574 7.73243C0.438493 7.61352 0.438493 7.42073 0.5574 7.30182L6.97463 0.884588C7.04924 0.80615 7.13891 0.74354 7.23829 0.700518C7.33932 0.656781 7.44824 0.634217 7.55833 0.634217C7.66842 0.634217 7.77734 0.656781 7.87837 0.700518C7.97775 0.74354 8.06741 0.80615 8.14202 0.884588L14.5593 7.30182C14.6782 7.42073 14.6782 7.61352 14.5593 7.73242Z" fill="#0D0E0F" />
	</symbol>
	<symbol id="close" xmlns="http://www.w3.org/2000/svg" width="20" height="21" viewBox="0 0 20 21" fill="none">
		<path fill-rule="evenodd" clip-rule="evenodd" d="M2.79009 2.8376C2.98156 2.64613 3.29199 2.64613 3.48346 2.8376L10.0008 9.35496L16.5182 2.8376C16.7096 2.64613 17.0201 2.64613 17.2115 2.8376C17.403 3.02907 17.403 3.33951 17.2115 3.53098L10.6942 10.0483L17.2115 16.5657C17.403 16.7572 17.403 17.0676 17.2115 17.2591C17.0201 17.4505 16.7096 17.4505 16.5182 17.2591L10.0008 10.7417L3.48346 17.2591C3.29199 17.4505 2.98156 17.4505 2.79009 17.2591C2.59862 17.0676 2.59862 16.7572 2.79009 16.5657L9.30744 10.0483L2.79009 3.53098C2.59862 3.33951 2.59862 3.02907 2.79009 2.8376Z" fill="black" />
	</symbol>
	<symbol id="cancel" xmlns="http://www.w3.org/2000/svg" width="22" height="23" viewBox="0 0 22 23" fill="none">
		<path fill-rule="evenodd" clip-rule="evenodd" d="M0.214788 0.526373C0.501173 0.239988 0.965494 0.239988 1.25188 0.526373L11 10.2745L20.7481 0.526373C21.0345 0.239988 21.4988 0.239988 21.7852 0.526373C22.0716 0.812757 22.0716 1.27708 21.7852 1.56346L12.0371 11.3116L21.7852 21.0597C22.0716 21.3461 22.0716 21.8104 21.7852 22.0968C21.4988 22.3832 21.0345 22.3832 20.7481 22.0968L11 12.3487L1.25188 22.0968C0.965494 22.3832 0.501173 22.3832 0.214788 22.0968C-0.0715961 21.8104 -0.0715961 21.3461 0.214788 21.0597L9.96291 11.3116L0.214788 1.56346C-0.0715961 1.27708 -0.0715961 0.812757 0.214788 0.526373Z" fill="#9A9A9A" />
	</symbol>
	<symbol id="plus" xmlns="http://www.w3.org/2000/svg" width="23" height="23" viewBox="0 0 23 23" fill="none">
		<path d="M18.2207 11.914H11.8518V18.283H10.2595V11.914H3.89062V10.3218H10.2595V3.95288H11.8518V10.3218H18.2207V11.914Z" fill="#1E1E1E" />
	</symbol>
	<symbol id="minus" xmlns="http://www.w3.org/2000/svg" width="23" height="23" viewBox="0 0 23 23" fill="none">
		<rect x="3.72852" y="10.2337" width="14.6572" height="1.76839" fill="#1E1E1E" />
	</symbol>
	<symbol id="question" xmlns="http://www.w3.org/2000/svg" width="22" height="22" viewBox="0 0 22 22" fill="none">
		<path d="M11 0.922363C13.7848 0.922363 16.4555 2.02861 18.4246 3.99774C20.3938 5.96687 21.5 8.63759 21.5 11.4224C21.5 14.2071 20.3938 16.8779 18.4246 18.847C16.4555 20.8161 13.7848 21.9224 11 21.9224C8.21523 21.9224 5.54451 20.8161 3.57538 18.847C1.60625 16.8779 0.5 14.2071 0.5 11.4224C0.5 8.63759 1.60625 5.96687 3.57538 3.99774C5.54451 2.02861 8.21523 0.922363 11 0.922363ZM11.5565 5.41036C10.3355 5.41036 9.3785 5.75686 8.669 6.44986C7.943 7.14286 7.5965 8.09986 7.5965 9.32086H9.4775C9.4775 8.62786 9.6095 8.08336 9.89 7.70386C10.2035 7.24186 10.715 7.02736 11.441 7.02736C12.002 7.02736 12.4475 7.17586 12.761 7.48936C13.058 7.80286 13.223 8.23186 13.223 8.77636C13.223 9.18886 13.0745 9.58486 12.7775 9.94786L12.5795 10.1789C11.507 11.1359 10.8635 11.8289 10.649 12.2744C10.418 12.7199 10.319 13.2644 10.319 13.8914V14.1224H12.2165V13.8914C12.2165 13.4954 12.299 13.1489 12.464 12.8189C12.6125 12.5219 12.827 12.2414 13.124 11.9939C13.916 11.3009 14.3945 10.8554 14.543 10.6904C14.939 10.1624 15.1535 9.48586 15.1535 8.66086C15.1535 7.65436 14.8235 6.86236 14.1635 6.28486C13.5035 5.69086 12.629 5.41036 11.5565 5.41036ZM11.2595 14.9309C10.9231 14.9218 10.5967 15.0464 10.352 15.2774C10.2312 15.3912 10.1362 15.5296 10.0736 15.6834C10.0109 15.8371 9.9821 16.0025 9.989 16.1684C9.989 16.5314 10.1045 16.8284 10.352 17.0594C10.5949 17.2951 10.921 17.4256 11.2595 17.4224C11.6225 17.4224 11.9195 17.3069 12.167 17.0759C12.2904 16.9597 12.388 16.8189 12.4533 16.6625C12.5187 16.5062 12.5505 16.3378 12.5465 16.1684C12.5497 16.003 12.5191 15.8387 12.4567 15.6855C12.3943 15.5323 12.3013 15.3934 12.1835 15.2774C11.9324 15.0459 11.6009 14.9216 11.2595 14.9309Z" fill="#FF3F40" />
	</symbol>
	<symbol id="exit" xmlns="http://www.w3.org/2000/svg" width="15" height="15" viewBox="0 0 15 15" fill="none">
		<g clip-path="url(#clip0_187_1730)">
			<path d="M7.03906 7.59021H14.0391" stroke="#9A9A9A" stroke-linecap="round" stroke-linejoin="round" />
			<path d="M12.0391 5.59021L14.0391 7.59021L12.0391 9.59021" stroke="#9A9A9A" stroke-linecap="round" stroke-linejoin="round" />
			<path d="M12.2373 12.0802C11.3393 13.0162 10.1819 13.6621 8.91385 13.9348C7.64581 14.2076 6.32516 14.0948 5.12177 13.6109C3.91837 13.1269 2.88727 12.2941 2.1611 11.2194C1.43492 10.1446 1.04688 8.87726 1.04688 7.58021C1.04688 6.28316 1.43492 5.01577 2.1611 3.94106C2.88727 2.86635 3.91837 2.03347 5.12177 1.54955C6.32516 1.06563 7.64581 0.952802 8.91385 1.22558C10.1819 1.49835 11.3393 2.14426 12.2373 3.08021" stroke="#9A9A9A" stroke-linecap="round" stroke-linejoin="round" />
		</g>
		<defs>
			<clipPath id="clip0_187_1730">
				<rect width="14" height="14" fill="white" transform="translate(0.539062 0.59021)" />
			</clipPath>
		</defs>
	</symbol>
	<symbol id="telegram" xmlns="http://www.w3.org/2000/svg" width="17" height="17" viewBox="0 0 17 17" fill="none">
		<g clip-path="url(#clip0_200_7998)">
			<path d="M16.453 3.58125L14.0387 13.5437C13.8566 14.2469 13.3816 14.4219 12.7066 14.0906L9.02799 11.7188L7.25299 13.2125C7.05656 13.3844 6.89227 13.5281 6.5137 13.5281L6.77799 10.25L13.5958 4.85938C13.8923 4.62813 13.5316 4.5 13.1351 4.73125L4.70656 9.375L1.07799 8.38125C0.288703 8.16563 0.274417 7.69063 1.24227 7.35938L15.4351 2.575C16.0923 2.35938 16.6673 2.70313 16.453 3.58125Z" fill="white" />
		</g>
		<defs>
			<clipPath id="clip0_200_7998">
				<rect width="16" height="16" fill="white" transform="translate(0.5 0.5)" />
			</clipPath>
		</defs>
	</symbol>
	<symbol id="video" xmlns="http://www.w3.org/2000/svg" width="21" height="21" viewBox="0 0 21 21" fill="none">
		<path d="M7.24414 5.20493V16.8716L16.4108 11.0383L7.24414 5.20493Z" fill="#1E1E1E" />
	</symbol>
</svg>
