<svg width="86" height="33" viewBox="0 0 86 33" fill="none" xmlns="http://www.w3.org/2000/svg">
<g clip-path="url(#clip0_200_7948)">
<path d="M0.984375 15.9035C1.065 15.3078 1.13594 14.7121 1.23269 14.1196C1.75956 10.8603 3.28646 7.8446 5.6027 5.48857C7.91895 3.13253 10.9104 1.5523 14.1642 0.965916C19.3659 0.0192343 23.9742 1.32656 27.9278 4.80416C30.779 7.27282 32.6165 10.7061 33.0875 14.4449C33.7647 19.3779 32.4135 23.7539 29.0791 27.473C26.4992 30.3356 23.2744 31.981 19.4659 32.5992C18.9757 32.6797 18.4791 32.7248 17.9824 32.7892H16.2959C16.1747 32.7508 16.0507 32.7217 15.925 32.7023C14.0238 32.5932 12.1619 32.1164 10.4428 31.2984C5.34434 28.8479 2.25496 24.8584 1.23269 19.3038C1.12627 18.7146 1.065 18.1157 0.984375 17.5232V15.9035ZM10.9039 10.1751C10.7764 10.1837 10.6494 10.1987 10.5234 10.2202C9.3786 10.51 8.23379 10.8127 7.08575 11.0864C6.76327 11.1604 6.68587 11.3086 6.68587 11.6177C6.68587 13.598 6.68587 15.5751 6.70199 17.5522C6.7089 18.1303 6.76608 18.7067 6.87291 19.2749C7.28111 21.5327 8.42738 23.5918 10.1324 25.13C11.8374 26.6681 14.0049 27.5985 16.2959 27.7757C17.7685 27.9143 19.2537 27.7286 20.6466 27.2318C22.0396 26.7349 23.3065 25.9391 24.3579 24.9002C26.2019 23.2289 27.3254 20.909 27.4925 18.428C27.6343 16.1386 27.557 13.8331 27.5892 11.534C27.5965 11.4847 27.5939 11.4344 27.5816 11.3861C27.5693 11.3378 27.5475 11.2924 27.5175 11.2526C27.4875 11.2128 27.4499 11.1793 27.4069 11.1541C27.3638 11.1289 27.3162 11.1124 27.2667 11.1057C26.4218 10.8835 25.5801 10.6388 24.732 10.4231C24.3063 10.3168 23.8678 10.2556 23.3808 10.1622V10.729C23.3808 13.0538 23.3808 15.3787 23.3808 17.7035C23.3952 18.9765 23.189 20.2424 22.7713 21.4451C22.1263 23.2033 21.0073 24.4687 19.1531 24.9872C18.2227 25.2497 17.2497 25.3274 16.2894 25.2158C14.3835 25.0129 12.9162 24.1693 11.9681 22.453C11.2447 21.055 10.8812 19.4991 10.9104 17.9257C10.8814 15.5107 10.9104 13.0957 10.9104 10.6807L10.9039 10.1751ZM15.2671 10.4971C15.2671 11.8077 15.2671 13.1182 15.2671 14.4288C15.2671 14.725 15.3413 14.8377 15.6541 14.8345C16.6474 14.8152 17.6374 14.8345 18.6306 14.8345C18.9241 14.8345 19.0337 14.7604 19.0337 14.4449C19.0208 11.813 19.0208 9.18015 19.0337 6.54618C19.0337 6.26282 18.9531 6.15656 18.6629 6.15978C17.661 6.15978 16.6581 6.15978 15.6541 6.15978C15.3316 6.15978 15.2639 6.27892 15.2671 6.57194C15.2768 7.88571 15.2671 9.19625 15.2671 10.5068V10.4971Z" fill="#8401FF"/>
<path d="M72.0729 14.187C72.0729 12.9344 72.0729 11.7398 72.0729 10.5484C72.0469 9.93366 72.0696 9.3178 72.1406 8.70658C72.2562 7.91271 72.6509 7.18582 73.2542 6.65602C73.8575 6.12621 74.6299 5.82809 75.4332 5.81502C75.9784 5.75416 76.5303 5.8041 77.0557 5.96181C77.5811 6.11952 78.0691 6.38175 78.4903 6.73272C78.6806 6.90016 78.8418 7.0998 79.0289 7.29944C79.219 7.0718 79.4237 6.85668 79.6416 6.65544C80.6381 5.84078 81.799 5.68944 83.0277 5.87298C84.6207 6.12414 85.6075 7.03862 85.9074 8.56812C85.9576 8.84645 85.9803 9.12902 85.9752 9.41177C85.9752 10.8479 85.9752 12.2872 85.9752 13.7266C85.9752 14.0808 85.8687 14.1903 85.514 14.1742C84.911 14.1452 84.3079 14.1742 83.6565 14.1742V13.7234C83.6565 12.3999 83.6565 11.0765 83.6565 9.75631C83.6565 8.85148 83.2437 8.23324 82.5375 8.00462C81.3379 7.61178 80.2801 8.28798 80.2188 9.54057C80.1608 10.9252 80.1672 12.313 80.1769 13.6976C80.1769 14.0904 80.0673 14.2064 79.6771 14.1838C79.0902 14.1484 78.4968 14.1838 77.8615 14.1838V13.733C77.8615 12.3838 77.8615 11.0346 77.8615 9.68547C77.8615 8.23646 76.4716 7.5506 75.2333 8.1141C74.9839 8.22822 74.7737 8.41297 74.6286 8.64539C74.4836 8.87781 74.4101 9.14767 74.4174 9.42143C74.3755 10.8318 74.3787 12.2454 74.3658 13.6557C74.3658 14.1838 74.3658 14.1838 73.8466 14.1838L72.0729 14.187Z" fill="#8401FF"/>
<path d="M44.2585 20.0603C45.7484 18.9301 47.3028 18.8432 48.9119 19.3841C50.4502 19.9025 51.2886 21.0489 51.524 22.6041C51.9465 25.4023 50.1277 27.1959 47.7639 27.5211C46.7173 27.6862 45.6464 27.6012 44.639 27.2731C43.8966 27.0524 43.2426 26.604 42.7697 25.9914C42.2968 25.3787 42.029 24.633 42.0044 23.8599C41.8883 22.4045 41.9334 20.9362 41.9141 19.4711C41.9141 18.6371 41.9141 17.8031 41.9141 16.9691C41.9141 16.7308 41.9947 16.6471 42.2365 16.6471C42.8041 16.6471 43.3717 16.6471 43.9393 16.6471C44.2166 16.6471 44.2843 16.7502 44.2811 17.011C44.2811 17.8578 44.2811 18.7079 44.2811 19.5548L44.2585 20.0603ZM46.7481 25.573C48.4121 25.573 49.5182 24.285 49.1345 22.7877C49.0426 22.3833 48.8353 22.0142 48.5377 21.725C48.2401 21.4358 47.8649 21.239 47.4575 21.1584C47.0113 21.0179 46.5341 21.0089 46.0828 21.1322C45.6316 21.2556 45.2255 21.5061 44.9132 21.8539C44.6115 22.1676 44.4141 22.5666 44.3478 22.9964C44.2814 23.4263 44.3493 23.8661 44.5423 24.256C44.9551 25.1962 45.7548 25.5601 46.7481 25.573Z" fill="#8401FF"/>
<path d="M59.9157 20.4757V19.2714H62.1957C62.1957 19.426 62.2118 19.5934 62.2118 19.7254C62.2118 21.3354 62.2118 22.9132 62.2118 24.5039C62.2118 25.0964 62.3505 25.5569 63.0664 25.4989C63.1309 25.4989 63.2696 25.647 63.2728 25.7307C63.2921 26.217 63.2921 26.6967 63.2728 27.1926C63.2728 27.2796 63.1406 27.4277 63.0696 27.4277C62.5314 27.4445 61.9926 27.424 61.4572 27.3665C61.1402 27.3216 60.8398 27.1966 60.5847 27.0033C60.3297 26.81 60.1282 26.5549 59.9996 26.262C59.9673 26.1976 59.9254 26.1332 59.9286 26.1365C59.4352 26.51 58.9967 26.9737 58.4613 27.2248C57.9006 27.4909 57.2854 27.6225 56.6648 27.6094C56.0441 27.5963 55.4351 27.4387 54.8861 27.1491C54.3372 26.8596 53.8635 26.4461 53.5028 25.9416C53.142 25.4371 52.9042 24.8555 52.8082 24.2431C52.6548 23.5173 52.6832 22.7649 52.8908 22.0527C53.0983 21.3405 53.4787 20.6904 53.9982 20.1601C55.3494 18.7498 58.4194 18.6049 59.6836 20.2728C59.7573 20.3445 59.8348 20.4122 59.9157 20.4757ZM57.1327 21.1036C56.7907 21.1083 56.4547 21.1946 56.1529 21.3554C55.8511 21.5162 55.5922 21.7467 55.3978 22.0277C55.1534 22.3553 55.0062 22.7449 54.9732 23.1521C54.9401 23.5592 55.0224 23.9674 55.2107 24.33C55.6074 25.1801 56.3555 25.544 57.2682 25.5987C57.5873 25.6332 57.9101 25.6009 58.216 25.5039C58.5219 25.4068 58.8042 25.2472 59.0448 25.0351C59.2854 24.823 59.4792 24.5631 59.6136 24.2721C59.748 23.981 59.8201 23.6652 59.8254 23.3447C59.8448 22.0374 58.7322 21.0231 57.1327 21.1036Z" fill="#8401FF"/>
<path d="M78.1046 23.0871C78.3142 22.865 78.4465 22.7297 78.569 22.5913C79.4849 21.5641 80.3878 20.5272 81.3198 19.5129C81.4773 19.3597 81.6841 19.2673 81.9035 19.2521C82.6516 19.2231 83.3966 19.2521 84.2382 19.2521C83.8384 19.7158 83.4869 20.1312 83.1289 20.5401C82.4227 21.3419 81.7229 22.1501 81.0005 22.9326C80.7845 23.1676 80.7974 23.3158 81.0005 23.5412C82.097 24.7326 83.1837 25.9368 84.2705 27.1379C84.3447 27.2216 84.4156 27.3086 84.5349 27.4599C83.6352 27.4599 82.8064 27.4792 81.9776 27.4599C81.8132 27.4599 81.6326 27.2603 81.5004 27.1154C80.4727 26.0012 79.4494 24.8807 78.4303 23.7537C78.3557 23.6534 78.2919 23.5454 78.2401 23.4317L78.0853 23.5315C78.0853 23.6635 78.0627 23.7988 78.0627 23.9308C78.0627 24.9837 78.0627 26.0367 78.0627 27.0928C78.0627 27.3891 77.9821 27.5018 77.6693 27.4857C77.1677 27.4567 76.6649 27.4567 76.1633 27.4857C75.8053 27.5082 75.7344 27.3601 75.7344 27.0413C75.7344 24.6521 75.7344 22.2628 75.7344 19.8704C75.7344 18.9462 75.7344 18.0221 75.7344 17.0979C75.7344 16.8178 75.815 16.7051 76.1085 16.718C76.6373 16.7373 77.1662 16.7373 77.6951 16.718C77.9918 16.718 78.0595 16.8178 78.0595 17.0979C78.0595 18.9204 78.0595 20.7462 78.0595 22.5719C78.0595 22.6814 78.0853 22.8263 78.1046 23.0871Z" fill="#8401FF"/>
<path d="M73.923 27.4406H71.901C71.6075 27.4406 71.6591 27.228 71.6591 27.0606C71.6591 25.8885 71.6591 24.7197 71.6591 23.5508C71.6553 23.2178 71.6142 22.8862 71.5366 22.5623C71.4683 22.2858 71.327 22.0326 71.1273 21.8293C70.9277 21.6259 70.677 21.4799 70.4015 21.4063C69.847 21.2203 69.2482 21.2124 68.6891 21.3837C68.3071 21.5108 67.9758 21.7565 67.7437 22.085C67.5116 22.4135 67.3909 22.8075 67.3991 23.2095C67.3991 24.4975 67.3766 25.7533 67.3991 27.0252C67.3991 27.3794 67.2927 27.4663 66.9606 27.4502C66.4188 27.4212 65.877 27.4502 65.3481 27.4502C65.1353 27.4502 65.0547 27.3858 65.0547 27.1636C65.0547 24.6198 65.0547 22.076 65.0547 19.5322C65.0547 19.3133 65.1385 19.236 65.3481 19.2392C65.9415 19.2392 66.5349 19.2392 67.1283 19.2392C67.3475 19.2392 67.4185 19.3326 67.4088 19.5612C67.4088 19.938 67.4088 20.3115 67.4088 20.8009C67.5108 20.726 67.6058 20.6419 67.6926 20.5498C67.9896 20.1463 68.3784 19.819 68.827 19.5951C69.2755 19.3711 69.771 19.2569 70.2725 19.2618C70.9337 19.2183 71.596 19.3285 72.2074 19.5838C72.723 19.8005 73.1634 20.164 73.4737 20.629C73.7839 21.0939 73.9502 21.6397 73.952 22.1984C74.0326 23.9018 73.9778 25.6148 73.9778 27.3246C73.962 27.3644 73.9437 27.4031 73.923 27.4406Z" fill="#8401FF"/>
<path d="M55.1793 12.2261H55.5889C56.9691 12.2261 58.3461 12.2261 59.7263 12.2261C60.023 12.2261 60.1359 12.2969 60.1197 12.6125C60.0939 13.1212 60.1197 13.6332 60.1197 14.1645H51.9609C51.9609 13.5366 51.9609 12.9248 51.9609 12.313C51.9609 12.2003 52.0996 12.0747 52.1996 11.991C53.5712 10.7631 54.9439 9.5395 56.3177 8.32019C56.4276 8.23558 56.5428 8.15814 56.6627 8.08835L56.5821 7.96599C56.4596 7.96599 56.3403 7.94989 56.2177 7.94989C54.9794 7.94989 53.7443 7.94989 52.5059 7.94989C52.1834 7.94989 52.0835 7.84685 52.1028 7.53451C52.1254 7.12235 52.1028 6.71019 52.1028 6.30125C52.1028 6.07263 52.1673 5.97925 52.4092 5.97925C54.7741 5.97925 57.1325 5.97925 59.4845 5.97925C59.7166 5.97925 59.8263 6.05009 59.8069 6.30125C59.8005 6.33962 59.8005 6.3788 59.8069 6.41717C60.0004 7.52163 59.5909 8.30409 58.6815 8.99317C57.556 9.84325 56.5531 10.8543 55.4953 11.7914C55.3728 11.9008 55.2374 12.0007 55.1084 12.1134L55.1793 12.2261Z" fill="#8401FF"/>
<path d="M44.265 5.97925V6.45903C44.265 7.80499 44.265 9.15417 44.265 10.5034C44.2458 10.8881 44.3653 11.2671 44.602 11.5714C44.8387 11.8756 45.1768 12.0851 45.555 12.1617C46.5547 12.3806 47.4254 12.0876 47.7543 11.3406C47.9076 10.9609 47.9865 10.5553 47.9865 10.1459C48.0155 8.92555 47.9865 7.70517 47.9865 6.48479C47.9865 5.99213 47.9865 5.98891 48.5025 5.98891C49.0184 5.98891 49.5054 5.98891 50.0084 5.98891C50.2245 5.98891 50.3051 6.06297 50.3051 6.27871C50.3051 7.80821 50.3438 9.34093 50.2729 10.864C50.1955 12.5835 48.6605 14.0421 46.8804 14.2804C45.9843 14.4163 45.068 14.298 44.236 13.9391C42.6945 13.2597 41.9561 12.0329 41.9206 10.3971C41.8883 9.04791 41.9206 7.69873 41.9206 6.34955C41.9206 6.07907 42.0044 5.99535 42.2753 6.00179C42.9106 5.99213 43.5556 5.97925 44.265 5.97925Z" fill="#8401FF"/>
<path d="M70.2558 5.97924V6.71985C70.2558 7.94023 70.2332 9.16061 70.2558 10.381C70.3074 12.4547 68.8401 13.923 66.8439 14.245C66.0697 14.4045 65.2663 14.3463 64.5233 14.0768C63.7802 13.8074 63.1267 13.3372 62.6355 12.7187C62.096 12.003 61.8244 11.1212 61.868 10.2264C61.8486 8.93843 61.868 7.63111 61.868 6.33345C61.868 6.04043 61.9647 5.95992 62.2453 5.96958C62.8902 5.98568 63.5352 5.96958 64.2028 5.96958C64.2028 6.14668 64.2221 6.29159 64.2221 6.42361C64.2221 7.71161 64.2221 8.99961 64.2221 10.2876C64.2221 11.859 65.5604 12.6994 67.0019 12.0393C67.2573 11.9256 67.4761 11.7437 67.6344 11.5135C67.7926 11.2833 67.884 11.014 67.8984 10.7352C67.9532 10.1363 67.9565 9.53091 67.9629 8.92877C67.9629 8.05615 67.9629 7.18353 67.9629 6.30769C67.9629 6.12737 67.9629 5.98569 68.2177 5.98569C68.8755 5.98569 69.5302 5.97924 70.2558 5.97924Z" fill="#8401FF"/>
</g>
<defs>
<clipPath id="clip0_200_7948">
<rect width="85" height="32.126" fill="white" transform="translate(0.984375 0.663025)"/>
</clipPath>
</defs>
</svg>
