<svg width="34" height="34" viewBox="0 0 34 34" fill="none" xmlns="http://www.w3.org/2000/svg">
<g clip-path="url(#clip0_346_19237)">
<path d="M29.1395 18.2143V13.3571C29.1395 12.713 28.8836 12.0953 28.4282 11.6399C27.9727 11.1844 27.355 10.9286 26.7109 10.9286H3.63951C2.99541 10.9286 2.3777 11.1844 1.92225 11.6399C1.4668 12.0953 1.21094 12.713 1.21094 13.3571V30.3571C1.21094 31.0012 1.4668 31.619 1.92225 32.0744C2.3777 32.5298 2.99541 32.7857 3.63951 32.7857H26.7109C27.355 32.7857 27.9727 32.5298 28.4282 32.0744C28.8836 31.619 29.1395 31.0012 29.1395 30.3571V24.2857" stroke="#9A9A9A" stroke-linecap="round" stroke-linejoin="round"/>
<path d="M9.32031 4.85714L23.0903 1.26286C23.245 1.21926 23.407 1.20747 23.5664 1.22819C23.7258 1.24891 23.8794 1.30172 24.0179 1.38342C24.1563 1.46513 24.2768 1.57404 24.372 1.70358C24.4672 1.83313 24.5351 1.98061 24.5717 2.13714L25.2517 4.85714" stroke="#9A9A9A" stroke-linecap="round" stroke-linejoin="round"/>
<path d="M31.567 18.2143H25.4955C24.8249 18.2143 24.2812 18.7579 24.2812 19.4286V23.0714C24.2812 23.7421 24.8249 24.2857 25.4955 24.2857H31.567C32.2376 24.2857 32.7812 23.7421 32.7812 23.0714V19.4286C32.7812 18.7579 32.2376 18.2143 31.567 18.2143Z" stroke="#9A9A9A" stroke-linecap="round" stroke-linejoin="round"/>
</g>
<defs>
<clipPath id="clip0_346_19237">
<rect width="34" height="34" fill="white"/>
</clipPath>
</defs>
</svg>
